<?xml version="1.0" standalone="no"?>
<!DOCTYPE svg PUBLIC "-//W3C//DTD SVG 20010904//EN"
 "http://www.w3.org/TR/2001/REC-SVG-20010904/DTD/svg10.dtd">
<svg version="1.0" xmlns="http://www.w3.org/2000/svg"
 width="400.000000pt" height="400.000000pt" viewBox="0 0 400.000000 400.000000"
 preserveAspectRatio="xMidYMid meet">

<g transform="translate(0.000000,400.000000) scale(0.100000,-0.100000)"
fill="#000000" stroke="none">
<path d="M1690 3900 c-631 -107 -1161 -503 -1435 -1072 -415 -863 -138 -1900
651 -2438 733 -500 1696 -443 2369 141 341 295 572 717 640 1165 23 154 20
461 -6 615 -113 666 -569 1230 -1195 1478 -129 51 -300 97 -434 116 -148 21
-453 18 -590 -5z m500 -90 c224 -28 394 -77 590 -171 527 -253 883 -710 1012
-1299 20 -93 22 -133 23 -345 0 -212 -3 -253 -23 -353 -117 -578 -490 -1058
-1015 -1307 -141 -67 -264 -108 -426 -142 -115 -25 -146 -27 -351 -28 -253 0
-340 11 -539 71 -413 125 -791 414 -1018 779 -339 544 -374 1205 -93 1780 33
66 68 131 80 145 11 14 -4 -27 -34 -90 -63 -131 -98 -246 -126 -405 -26 -151
-34 -301 -21 -421 12 -117 17 -135 37 -127 21 8 30 -28 11 -42 -19 -14 -22
-42 -7 -79 14 -37 40 -32 85 14 21 22 42 40 45 40 4 0 14 -17 24 -38 24 -49
137 -213 193 -280 25 -29 46 -63 47 -76 1 -20 4 -22 19 -14 10 5 22 7 25 3 4
-3 8 -104 9 -223 l2 -217 63 -58 63 -58 6 73 c4 40 7 165 8 278 l1 205 87 65
c89 67 94 72 115 128 l13 34 28 -43 c28 -42 28 -43 11 -81 -13 -28 -16 -54
-12 -107 5 -62 2 -77 -22 -128 -36 -77 -43 -128 -29 -228 11 -75 10 -88 -10
-150 -11 -38 -21 -76 -21 -84 0 -9 -7 -27 -16 -39 -9 -13 -14 -25 -13 -26 11
-9 97 -56 102 -56 3 0 7 17 9 38 l3 37 120 3 c66 2 145 -2 176 -8 37 -7 64 -7
80 -1 21 8 18 10 -21 10 l-44 1 44 46 c25 25 65 60 90 77 25 17 79 58 120 91
41 32 94 68 118 78 59 26 224 57 367 69 237 19 508 69 556 102 11 8 29 13 39
10 10 -3 42 0 72 7 46 9 56 16 78 52 65 105 261 200 362 175 13 -4 39 -21 57
-39 27 -26 31 -28 22 -10 -17 33 -70 62 -111 62 -19 0 -41 4 -48 9 -17 10 -22
42 -10 57 6 8 -2 14 -27 18 -22 4 -33 11 -29 18 8 13 16 68 9 68 -2 0 -16 -17
-30 -37 -30 -45 -34 -25 -5 23 13 19 17 35 11 39 -6 3 -8 12 -5 19 3 7 -2 20
-10 28 -13 13 -13 19 0 43 18 35 18 35 -11 35 -29 0 -31 7 -8 32 9 10 11 18 5
18 -15 0 -42 58 -35 76 3 9 -1 14 -11 14 -11 0 -16 7 -14 17 2 13 -6 19 -32
23 -31 5 -33 7 -12 14 25 8 28 21 8 33 -8 4 -16 17 -18 28 -1 11 -12 23 -23
26 -18 5 -16 8 15 27 l35 22 -45 1 c-25 0 -39 3 -32 6 10 4 9 8 -5 19 -10 7
-24 14 -31 14 -7 0 -24 8 -39 17 -23 16 -24 17 -7 24 18 7 18 8 -1 8 -12 1
-26 6 -32 12 -5 5 -31 12 -57 13 -51 4 -68 13 -47 25 9 6 7 10 -8 14 -13 3
-25 -1 -31 -11 -8 -15 -11 -14 -10 3 1 3 -6 12 -14 21 -8 8 -13 21 -10 29 3 7
-3 18 -15 24 -33 18 -42 14 -31 -15 13 -32 13 -44 0 -44 -5 0 -10 11 -10 23 0
34 -12 41 -27 15 -12 -23 -12 -23 -13 -2 0 12 -6 27 -14 33 -12 10 -14 9 -10
-6 3 -10 -2 -27 -10 -38 -15 -19 -15 -19 -16 -1 0 10 -24 -30 -54 -90 -61
-123 -99 -165 -194 -214 -58 -30 -68 -32 -137 -28 -92 6 -188 50 -238 108 -35
42 -67 122 -67 170 0 47 38 154 70 198 30 41 27 52 -9 32 -12 -6 -30 -6 -52 0
-25 7 -52 5 -109 -9 -145 -37 -176 -43 -260 -52 -118 -13 -249 -38 -285 -55
-32 -15 -110 -75 -244 -187 l-81 -68 0 45 c0 26 -5 47 -12 50 -9 3 -8 8 5 16
13 8 17 26 18 68 l2 57 16 -80 c21 -106 21 -119 29 585 l7 595 70 48 c207 142
520 255 775 280 83 9 373 6 450 -3z m-1584 -696 c8 3 16 1 19 -4 11 -17 42
-11 48 9 6 24 66 39 78 20 5 -8 6 -23 3 -33 -6 -17 -6 -196 -2 -296 1 -19 1
-71 0 -116 l-2 -80 -42 -24 c-59 -33 -74 -54 -99 -135 -12 -38 -25 -74 -29
-80 -11 -15 -23 -84 -23 -137 0 -57 -13 -61 -48 -15 -52 70 -56 85 -57 219 -1
117 1 131 23 169 22 39 22 45 10 87 -8 24 -23 54 -33 66 -33 35 -37 65 -12 91
11 12 23 38 25 56 3 19 12 39 20 46 9 6 12 14 6 17 -13 9 20 96 55 141 27 36
28 37 38 16 5 -12 15 -20 22 -17z m141 -614 c6 -30 -11 -41 -45 -29 -36 12
-40 23 -14 38 23 15 56 9 59 -9z m-32 -116 l35 -47 -3 -99 c-4 -106 -12 -124
-51 -107 -12 6 -32 25 -44 43 -21 31 -23 41 -18 136 3 56 8 106 11 111 13 19
35 7 70 -37z m2085 -154 c-6 -11 -13 -20 -16 -20 -2 0 0 9 6 20 6 11 13 20 16
20 2 0 0 -9 -6 -20z m30 -30 c0 -5 -2 -10 -4 -10 -3 0 -8 5 -11 10 -3 6 -1 10
4 10 6 0 11 -4 11 -10z m-2159 -130 l28 -12 -52 -42 c-91 -74 -200 -156 -208
-156 -18 0 -16 33 6 78 13 28 27 63 31 79 15 71 37 113 60 119 13 4 24 11 24
17 0 5 19 -8 41 -31 23 -22 54 -46 70 -52z m887 -559 c82 -28 87 -36 71 -118
-7 -37 -12 -87 -11 -110 1 -37 -1 -43 -19 -43 -35 0 -58 18 -52 40 3 11 9 20
13 20 15 0 17 49 3 54 -37 14 -46 7 -40 -31 9 -54 -1 -64 -41 -48 -31 14 -45
49 -22 57 13 4 41 141 31 151 -9 9 -3 47 8 47 3 -1 30 -9 59 -19z m764 -1 c18
0 19 -4 13 -40 -4 -24 -3 -40 3 -40 13 0 22 25 22 57 0 21 3 24 23 19 12 -3
25 -6 30 -6 10 0 9 -40 -2 -40 -11 0 -51 -66 -51 -83 0 -7 9 -30 20 -52 28
-55 26 -65 -15 -65 -35 0 -36 1 -33 35 4 44 -15 47 -22 3 -4 -29 -9 -33 -37
-36 -44 -4 -43 18 2 71 40 46 40 69 5 119 -29 40 -24 76 8 63 7 -3 23 -5 34
-5z m-136 -96 c-7 -63 -6 -91 2 -105 18 -28 14 -49 -7 -49 -11 0 -26 -3 -35
-6 -12 -5 -16 0 -16 20 0 14 5 26 10 26 6 0 10 5 10 10 0 6 -9 10 -19 10 -15
0 -21 -8 -23 -32 -3 -29 -7 -33 -35 -36 -28 -3 -33 0 -33 17 0 12 5 21 11 21
6 0 32 47 59 105 36 76 55 105 68 105 16 0 17 -6 8 -86z m-326 48 c0 -4 -3
-17 -6 -29 -6 -23 -38 -31 -49 -13 -3 6 -17 10 -30 10 -16 0 -25 -7 -29 -26
-8 -31 -1 -43 16 -26 14 14 48 16 48 3 0 -5 -3 -23 -6 -40 -5 -24 -12 -31 -30
-31 -13 0 -24 5 -24 10 0 21 -18 9 -23 -16 l-5 -26 54 7 c42 5 54 3 54 -7 0
-28 -18 -37 -93 -44 -74 -6 -77 -6 -77 14 0 11 4 23 9 26 13 8 33 131 25 160
-3 14 -4 28 -1 33 6 10 167 5 167 -5z m110 -2 c0 -11 -4 -20 -9 -20 -8 0 -31
-96 -31 -132 0 -12 7 -18 24 -18 14 0 28 5 31 10 3 6 15 10 26 10 16 0 18 -5
13 -27 -10 -38 -19 -43 -96 -43 -60 0 -68 2 -68 19 0 11 5 21 10 23 13 4 33
124 25 149 -9 27 12 49 46 49 22 0 29 -5 29 -20z"/>
<path d="M2185 3715 c-33 -7 -73 -18 -88 -24 -16 -6 -32 -9 -37 -6 -5 3 -11 1
-15 -5 -3 -5 -1 -10 4 -10 22 0 10 -21 -24 -41 -19 -12 -35 -25 -35 -31 0 -5
-16 -28 -35 -51 -19 -22 -35 -47 -35 -54 0 -7 -4 -21 -9 -31 -26 -50 -29 -104
-22 -372 3 -96 15 -85 25 23 6 64 14 85 48 137 9 14 22 43 28 65 16 55 54 102
72 88 15 -12 59 -7 69 8 9 16 22 13 29 -6 5 -14 10 -12 34 11 l27 28 -6 -29
-7 -30 22 25 c12 14 19 20 16 13 -5 -8 3 -10 28 -6 37 6 40 1 59 -92 3 -18 5
-17 17 7 7 15 16 25 21 23 4 -3 14 4 22 16 19 27 62 49 94 49 21 0 23 -3 13
-14 -6 -8 -19 -17 -28 -19 -9 -3 1 -3 23 0 22 2 43 10 48 18 4 8 15 12 25 9
16 -5 16 -5 0 8 -14 12 -15 15 -1 24 12 8 10 14 -16 39 -17 17 -31 34 -31 39
0 5 -8 18 -17 29 -10 11 -12 17 -5 13 6 -4 12 -3 12 1 0 15 -61 107 -76 116
-21 12 -6 29 19 22 18 -5 19 -4 6 4 -28 18 -207 22 -274 6z"/>
<path d="M2624 3515 c-4 -9 -13 -14 -20 -11 -8 3 -14 1 -14 -4 0 -6 5 -10 11
-10 6 0 17 -6 25 -14 8 -8 23 -12 35 -9 28 8 16 -15 -15 -27 -16 -7 -17 -9 -4
-9 9 -1 20 4 23 9 3 6 11 10 16 10 6 0 7 -4 4 -10 -3 -5 -1 -10 6 -10 6 0 9 8
6 20 -4 14 0 20 11 20 14 1 14 3 -3 16 -11 9 -32 22 -48 30 -24 13 -28 13 -33
-1z"/>
<path d="M2596 3442 c-3 -5 1 -9 9 -9 8 0 15 4 15 9 0 4 -4 8 -9 8 -6 0 -12
-4 -15 -8z"/>
<path d="M2721 3421 c-6 -11 -11 -32 -11 -46 0 -29 70 -185 83 -185 5 0 5 6 1
13 -6 9 -3 8 9 -1 14 -12 16 -10 17 10 2 70 3 81 7 66 8 -30 20 -20 19 16 -1
19 -5 32 -10 29 -5 -4 -7 6 -4 21 3 14 1 29 -3 32 -5 3 -9 -1 -9 -8 0 -7 -10
2 -21 20 -12 17 -23 32 -26 32 -2 0 -2 -4 2 -9 3 -5 1 -12 -5 -16 -5 -3 -10 0
-10 8 0 8 -6 20 -14 26 -12 10 -17 8 -25 -8z m95 -173 c4 -7 3 -8 -4 -4 -7 4
-12 2 -12 -5 0 -7 -3 -10 -6 -6 -6 5 3 27 11 27 2 0 7 -5 11 -12z"/>
<path d="M2023 3188 c-24 -32 -22 -35 30 -37 28 -1 69 -6 89 -12 46 -12 87 3
68 26 -12 15 -35 20 -121 30 -40 4 -59 2 -66 -7z"/>
<path d="M2445 3140 c-4 -6 -11 -8 -16 -5 -14 9 -11 -11 4 -23 9 -8 143 -42
164 -42 0 0 -1 9 -4 19 -3 12 -26 27 -60 40 -61 23 -79 26 -88 11z"/>
<path d="M2390 3120 c0 -5 5 -10 10 -10 6 0 10 5 10 10 0 6 -4 10 -10 10 -5 0
-10 -4 -10 -10z"/>
<path d="M2071 3111 c-13 -4 -31 -17 -40 -30 -15 -23 -14 -23 6 -17 12 4 24 2
28 -4 10 -17 76 -12 91 8 13 16 13 16 14 0 0 -10 6 -18 14 -18 16 0 11 34 -8
48 -16 13 -76 20 -105 13z m19 -36 c0 -8 -4 -15 -10 -15 -5 0 -10 7 -10 15 0
8 5 15 10 15 6 0 10 -7 10 -15z"/>
<path d="M1810 3019 c-6 -22 -9 -48 -7 -57 3 -11 5 -8 6 8 1 14 8 34 16 44 17
23 20 46 5 46 -5 0 -14 -18 -20 -41z"/>
<path d="M2425 3044 c-19 -19 -15 -38 8 -42 12 -2 15 1 11 12 -3 9 -1 16 5 16
6 0 11 -8 11 -19 0 -23 45 -34 61 -15 9 11 15 9 32 -6 34 -32 44 -23 12 10
-54 56 -110 74 -140 44z"/>
<path d="M2550 3036 c0 -2 8 -10 18 -17 15 -13 16 -12 3 4 -13 16 -21 21 -21
13z"/>
<path d="M2098 3013 c12 -2 32 -2 45 0 12 2 2 4 -23 4 -25 0 -35 -2 -22 -4z"/>
<path d="M2416 2979 c7 -13 67 -39 86 -39 7 0 -9 12 -37 25 -57 28 -59 29 -49
14z"/>
<path d="M1854 2943 c-3 -16 -7 -34 -10 -40 -8 -29 13 -10 24 20 15 40 15 47
2 47 -5 0 -12 -12 -16 -27z"/>
<path d="M2780 2899 c-8 -5 -13 -9 -10 -10 3 0 13 -2 23 -4 9 -2 17 1 17 5 0
15 -15 19 -30 9z"/>
<path d="M2152 2823 c-22 -8 7 -33 39 -33 15 0 31 -5 34 -10 4 -6 25 -10 48
-9 23 0 58 -2 77 -7 l35 -7 -20 22 c-16 19 -26 22 -60 17 -29 -5 -50 -1 -80
14 -40 20 -50 22 -73 13z"/>
<path d="M2410 2815 c0 -8 4 -15 10 -15 5 0 7 7 4 15 -4 8 -8 15 -10 15 -2 0
-4 -7 -4 -15z"/>
<path d="M2716 2821 c-4 -5 -1 -13 4 -16 8 -5 7 -12 -3 -23 -28 -33 -28 -40
-1 -37 31 3 45 21 42 55 -3 25 -31 39 -42 21z"/>
<path d="M2791 2818 c0 -9 -4 -25 -7 -35 -5 -17 -5 -17 6 0 6 10 9 25 7 35 -4
15 -5 15 -6 0z"/>
<path d="M2118 2701 l-48 -6 23 -29 c24 -30 71 -43 83 -24 4 7 2 8 -5 4 -10
-7 -41 15 -41 28 0 3 23 6 50 6 45 0 50 -2 50 -22 0 -21 1 -21 14 -3 12 17 17
17 60 5 34 -9 46 -18 46 -31 0 -20 10 -23 48 -13 34 9 27 19 -30 44 -84 37
-174 51 -250 41z"/>
<path d="M2068 2419 c68 -73 165 -96 238 -55 l29 16 -55 -4 c-65 -5 -146 8
-174 29 -66 47 -71 49 -38 14z"/>
<path d="M3404 1905 c-10 -25 4 -62 30 -78 l24 -16 -5 42 c-2 23 -6 48 -9 55
-5 17 -33 15 -40 -3z"/>
<path d="M3312 1714 c-2 -58 -1 -65 15 -62 21 4 28 43 18 95 -11 58 -30 39
-33 -33z"/>
<path d="M3433 1738 c-22 -23 -24 -39 -23 -141 0 -66 -14 -80 -56 -52 -26 16
-26 16 -19 -7 4 -12 15 -38 24 -56 l17 -34 38 83 c32 69 39 96 41 156 1 40 1
73 0 73 -1 0 -11 -10 -22 -22z"/>
<path d="M560 1368 c-61 -21 -93 -54 -64 -65 19 -7 64 15 114 57 40 34 28 36
-50 8z"/>
<path d="M2975 1290 c-4 -6 9 -10 32 -10 28 0 34 3 23 10 -20 13 -47 13 -55 0z"/>
<path d="M3401 1247 c-17 -17 -14 -24 30 -72 23 -25 39 -48 36 -51 -3 -3 -31
-1 -63 5 -54 10 -84 4 -84 -18 0 -7 131 -82 145 -82 26 -1 11 20 -30 42 -41
22 -64 49 -31 36 30 -12 104 -18 109 -10 3 5 -12 30 -34 56 -46 53 -42 58 16
22 46 -28 55 -30 55 -11 0 21 -136 96 -149 83z"/>
<path d="M3226 979 c-14 -17 -26 -34 -26 -39 0 -16 125 -109 134 -99 6 5 1 18
-13 33 -22 23 -22 26 -7 48 20 28 20 52 0 72 -25 25 -59 19 -88 -15z m74 -29
c0 -32 -23 -41 -50 -19 l-25 19 24 20 c26 22 51 13 51 -20z"/>
<path d="M1910 845 c21 -26 -1 -39 -42 -26 -21 7 -49 8 -78 2 l-45 -9 60 -1
c33 -1 80 -6 105 -11 25 -6 123 -12 218 -15 143 -4 172 -3 172 9 0 18 -22 26
-68 26 -20 0 -86 9 -146 20 -60 11 -127 20 -149 20 -34 0 -38 -2 -27 -15z"/>
<path d="M2410 840 c-11 -7 0 -10 37 -10 28 0 55 5 58 10 8 13 -75 13 -95 0z"/>
<path d="M2767 823 c-23 -4 -27 -8 -21 -26 9 -29 9 -30 33 -22 24 7 51 32 51
46 0 9 -12 9 -63 2z"/>
<path d="M2336 813 c-10 -10 15 -33 36 -33 10 0 16 4 13 10 -9 15 -41 30 -49
23z"/>
<path d="M3010 757 c-13 -7 -31 -25 -40 -40 -14 -25 -13 -30 5 -64 26 -49 64
-71 102 -57 18 6 29 18 31 32 2 15 9 22 17 18 25 -9 27 14 3 44 -28 35 -39 37
-63 10 -21 -23 -13 -39 10 -20 12 10 16 9 21 -5 9 -23 -8 -49 -34 -53 -25 -4
-72 41 -72 68 0 21 31 50 53 50 9 0 17 7 17 15 0 18 -17 19 -50 2z"/>
<path d="M2673 733 c9 -2 25 -2 35 0 9 3 1 5 -18 5 -19 0 -27 -2 -17 -5z"/>
<path d="M2840 629 c0 -6 12 -30 26 -55 14 -24 22 -44 17 -44 -4 0 -32 14 -61
30 -46 25 -82 31 -82 12 0 -11 71 -131 81 -138 24 -14 22 10 -4 57 -16 27 -26
49 -22 49 3 0 33 -14 67 -31 84 -42 92 -29 39 60 -38 65 -61 87 -61 60z"/>
<path d="M2245 603 c-20 -15 -19 -15 5 -9 14 3 45 6 70 7 41 1 42 2 15 9 -47
12 -69 11 -90 -7z"/>
<path d="M2620 511 c0 -22 65 -151 74 -148 14 6 11 18 -21 95 -14 34 -32 62
-40 62 -7 0 -13 -4 -13 -9z"/>
<path d="M1372 479 c-8 -12 -19 -18 -28 -15 -16 6 -19 -10 -4 -19 8 -5 7 -11
-1 -21 -6 -7 -15 -12 -19 -9 -5 3 -11 1 -14 -4 -4 -5 -2 -13 4 -16 8 -5 7 -11
-1 -21 -9 -11 -9 -18 -2 -25 8 -8 14 -5 22 10 13 23 41 29 41 8 0 -7 -5 -18
-11 -24 -8 -8 -7 -13 1 -18 7 -4 18 2 27 15 8 12 21 19 29 16 16 -6 19 10 4
19 -8 5 -7 11 1 21 6 7 15 12 19 9 5 -3 11 -1 14 4 4 5 2 12 -4 16 -7 4 -7 12
0 25 6 12 7 21 1 25 -6 3 -15 -4 -21 -15 -6 -11 -18 -20 -26 -20 -12 0 -14 7
-9 30 8 35 -4 39 -23 9z m24 -60 c10 -17 -13 -36 -27 -22 -12 12 -4 33 11 33
5 0 12 -5 16 -11z"/>
<path d="M2505 429 c25 -69 19 -74 -34 -30 -47 40 -81 52 -81 30 0 -23 44
-159 51 -159 17 0 18 18 4 65 -8 27 -13 51 -10 53 3 3 22 -10 43 -29 54 -51
66 -59 79 -51 18 11 -28 156 -50 160 -15 3 -15 0 -2 -39z"/>
<path d="M1546 373 c-9 -38 -19 -75 -22 -84 -3 -12 8 -18 47 -27 29 -7 54 -10
56 -8 9 9 -8 26 -25 26 -41 1 -45 13 -29 83 14 62 13 77 -3 77 -4 0 -15 -30
-24 -67z"/>
<path d="M2225 402 c-52 -5 -53 -7 -44 -59 5 -26 11 -63 14 -80 3 -19 12 -33
20 -33 10 0 12 9 8 34 -9 56 35 60 57 5 13 -29 40 -40 40 -15 0 7 -9 25 -21
40 -17 21 -19 30 -9 41 16 19 5 62 -17 66 -10 3 -31 3 -48 1z m40 -47 c0 -14
-8 -21 -27 -23 -24 -3 -28 0 -28 23 0 23 4 26 28 23 19 -2 27 -9 27 -23z"/>
<path d="M1746 353 c-4 -26 -9 -65 -12 -85 l-6 -37 46 -6 c67 -10 95 5 33 18
-36 7 -47 13 -43 24 3 8 6 19 6 24 0 5 16 9 35 9 44 0 46 18 3 22 -25 2 -33 8
-33 23 0 17 6 20 43 19 29 0 42 3 42 13 0 7 -11 13 -24 13 -13 0 -37 3 -53 6
-30 6 -31 5 -37 -43z"/>
<path d="M1966 302 c-14 -42 -26 -80 -26 -85 0 -16 28 -6 33 13 8 30 69 28 90
-2 29 -44 29 -8 1 72 -24 67 -32 80 -51 80 -18 0 -25 -12 -47 -78z m68 1 c6
-20 4 -23 -18 -23 -29 0 -31 6 -15 47 11 30 19 24 33 -24z"/>
<path d="M635 3030 c3 -5 10 -10 16 -10 5 0 9 5 9 10 0 6 -7 10 -16 10 -8 0
-12 -4 -9 -10z"/>
<path d="M1542 1433 c2 -20 9 -29 26 -31 18 -3 22 1 22 21 0 23 -16 37 -41 37
-6 0 -9 -12 -7 -27z"/>
</g>
</svg>
